<svg xmlns="http://www.w3.org/2000/svg" width="117.406" height="22.594" viewBox="0 0 117.406 22.594">
  <defs>
    <style>
      .cls-1 {
        fill: #fff;
        fill-rule: evenodd;
      }
    </style>
  </defs>
  <path id="appnest" class="cls-1" d="M390.039,74.934l-15.449,22.5h6.9l8.461-14.04h0.059v14.04h5.731v-22.5h-5.7Zm20.055,0.735a8.36,8.36,0,0,0-1.755-.495,15.667,15.667,0,0,0-1.83-.195q-0.93-.046-1.8-0.045h-7.35v22.5h5.52V79.974h2.1a12.932,12.932,0,0,1,1.4.075,3.6,3.6,0,0,1,1.215.345,2.146,2.146,0,0,1,.87.8,2.66,2.66,0,0,1,.33,1.425,2.8,2.8,0,0,1-.3,1.4,2.245,2.245,0,0,1-.795.825,3.161,3.161,0,0,1-1.155.405,8.544,8.544,0,0,1-1.35.1h-0.87v5.04h1.05q0.93,0,1.8-.06a9.135,9.135,0,0,0,1.68-.27,7.691,7.691,0,0,0,1.575-.6,6.719,6.719,0,0,0,1.485-1.05,5.363,5.363,0,0,0,1.05-1.215,7.573,7.573,0,0,0,.735-1.485,9.738,9.738,0,0,0,.435-1.6,8.959,8.959,0,0,0,.15-1.6,8.444,8.444,0,0,0-.645-3.285,6.556,6.556,0,0,0-2-2.625A5.838,5.838,0,0,0,410.094,75.668Zm18.57,0a8.36,8.36,0,0,0-1.755-.495,15.667,15.667,0,0,0-1.83-.195q-0.93-.046-1.8-0.045h-7.35v22.5h5.52V79.974h2.1a12.932,12.932,0,0,1,1.4.075,3.6,3.6,0,0,1,1.215.345,2.146,2.146,0,0,1,.87.8,2.66,2.66,0,0,1,.33,1.425,2.8,2.8,0,0,1-.3,1.4,2.245,2.245,0,0,1-.8.825,3.161,3.161,0,0,1-1.155.405,8.544,8.544,0,0,1-1.35.1h-0.87v5.04h1.05q0.93,0,1.8-.06a9.135,9.135,0,0,0,1.68-.27,7.691,7.691,0,0,0,1.575-.6,6.719,6.719,0,0,0,1.485-1.05,5.363,5.363,0,0,0,1.05-1.215,7.573,7.573,0,0,0,.735-1.485,9.738,9.738,0,0,0,.435-1.6,8.959,8.959,0,0,0,.15-1.6,8.444,8.444,0,0,0-.645-3.285,6.556,6.556,0,0,0-2-2.625A5.838,5.838,0,0,0,428.664,75.668Zm21.375-.735H444.7V77h5.34v16.59h-0.03l-12.57-18.66h-3.03v22.5h2.28V77.664h0.03l13.32,19.769h2.28v-22.5h-2.28Zm4.44,22.44h12.33v-2.01h-10.05v-8.31h5.85V85.014h-5.85v-8.1h10.05v-2.04h-12.33v22.5h0Zm24.284-.405a6.611,6.611,0,0,0,2.07-1.35,6.451,6.451,0,0,0,1.41-2.025,6.081,6.081,0,0,0,.525-2.519,6.223,6.223,0,0,0-.39-2.266,5.542,5.542,0,0,0-1.095-1.77,7.042,7.042,0,0,0-1.665-1.32,10.3,10.3,0,0,0-2.13-.915q-0.84-.27-1.77-0.525a7.284,7.284,0,0,1-1.695-.691,3.961,3.961,0,0,1-1.26-1.11,2.949,2.949,0,0,1-.5-1.785,3.668,3.668,0,0,1,.315-1.514,3.6,3.6,0,0,1,.855-1.2,4.067,4.067,0,0,1,1.26-.78,4.131,4.131,0,0,1,1.53-.285,3.663,3.663,0,0,1,1.515.315,3.936,3.936,0,0,1,1.23.855,3.982,3.982,0,0,1,.825,1.26,3.935,3.935,0,0,1,.3,1.529h2.13a5.959,5.959,0,0,0-.465-2.354,5.785,5.785,0,0,0-1.275-1.89,5.879,5.879,0,0,0-1.9-1.245,6.131,6.131,0,0,0-2.355-.45,6.433,6.433,0,0,0-2.37.435,5.889,5.889,0,0,0-3.255,3.06,5.52,5.52,0,0,0-.5,2.355,5.465,5.465,0,0,0,.45,2.355,4.6,4.6,0,0,0,1.23,1.59,6.651,6.651,0,0,0,1.8,1.05,22.348,22.348,0,0,0,2.19.735q0.87,0.271,1.74.63a6.985,6.985,0,0,1,1.56.885,4.115,4.115,0,0,1,1.11,1.275,3.767,3.767,0,0,1,.42,1.86,4.213,4.213,0,0,1-.345,1.7,4.29,4.29,0,0,1-.945,1.38,4.6,4.6,0,0,1-1.395.93,4.2,4.2,0,0,1-1.695.345,4.28,4.28,0,0,1-3.255-1.245,4.9,4.9,0,0,1-1.275-3.285h-2.19a7.138,7.138,0,0,0,.54,2.67,6.015,6.015,0,0,0,1.395,2.04,6.21,6.21,0,0,0,2.115,1.3,7.475,7.475,0,0,0,2.67.466A6.5,6.5,0,0,0,478.763,96.968Zm5.865-22.035v22.53h2.22V76.943h5.16v-2.01h-7.38Z" transform="translate(-374.594 -74.875)"/>
</svg>
